{
  "accessors": [
    {
      "bufferView": 2,
      "componentType": 5126,
      "count": 3520,
      "max": [
        19.990001678466797,
        0.009999999776482582,
        0.0
      ],
      "min": [
        -0.009998999536037445,
        -2.1015000343322754,
        -0.20000000298023224
      ],
      "type": "VEC3"
    },
    {
      "bufferView": 2,
      "byteOffset": 42240,
      "componentType": 5126,
      "count": 3520,
      "max": [
        1.0,
        1.0,
        1.0
      ],
      "min": [
        -1.0,
        -1.0,
        -1.0
      ],
      "type": "VEC3"
    },
    {
      "bufferView": 1,
      "componentType": 5126,
      "count": 3520,
      "max": [
        0.9900069832801819,
        0.9883360266685486
      ],
      "min": [
        0.14699000120162964,
        0.0009529999806545675
      ],
      "type": "VEC2"
    },
    {
      "bufferView": 0,
      "componentType": 5125,
      "count": 4680,
      "type": "SCALAR"
    },
    {
      "bufferView": 2,
      "byteOffset": 84480,
      "componentType": 5126,
      "count": 1280,
      "max": [
        19.98000144958496,
        -1.9900000095367432,
        0.0
      ],
      "min": [
        0.0,
        -2.1015000343322754,
        -0.20000000298023224
      ],
      "type": "VEC3"
    },
    {
      "bufferView": 2,
      "byteOffset": 99840,
      "componentType": 5126,
      "count": 1280,
      "max": [
        0.0,
        1.0,
        1.0
      ],
      "min": [
        0.0,
        -1.0,
        -1.0
      ],
      "type": "VEC3"
    },
    {
      "bufferView": 1,
      "byteOffset": 28160,
      "componentType": 5126,
      "count": 1280,
      "max": [
        0.9898200035095215,
        0.9929819703102112
      ],
      "min": [
        0.14699000120162964,
        0.0009529999806545675
      ],
      "type": "VEC2"
    },
    {
      "bufferView": 0,
      "byteOffset": 18720,
      "componentType": 5125,
      "count": 1920,
      "type": "SCALAR"
    },
    {
      "bufferView": 2,
      "byteOffset": 115200,
      "componentType": 5126,
      "count": 1760,
      "max": [
        9.99000072479248,
        0.009999999776482582,
        -0.0
      ],
      "min": [
        -0.009998999536037445,
        -2.1015000343322754,
        -0.20000000298023224
      ],
      "type": "VEC3"
    },
    {
      "bufferView": 2,
      "byteOffset": 136320,
      "componentType": 5126,
      "count": 1760,
      "max": [
        1.0,
        1.0,
        1.0
      ],
      "min": [
        -1.0,
        -1.0,
        -1.0
      ],
      "type": "VEC3"
    },
    {
      "bufferView": 1,
      "byteOffset": 38400,
      "componentType": 5126,
      "count": 1760,
      "max": [
        0.9797419905662537,
        0.976997971534729
      ],
      "min": [
        0.0009529999806545675,
        0.0009529999806545675
      ],
      "type": "VEC2"
    },
    {
      "bufferView": 0,
      "byteOffset": 26400,
      "componentType": 5125,
      "count": 2340,
      "type": "SCALAR"
    },
    {
      "bufferView": 2,
      "byteOffset": 157440,
      "componentType": 5126,
      "count": 640,
      "max": [
        9.979999542236328,
        -1.9900000095367432,
        -0.0
      ],
      "min": [
        0.0,
        -2.1015000343322754,
        -0.20000000298023224
      ],
      "type": "VEC3"
    },
    {
      "bufferView": 2,
      "byteOffset": 165120,
      "componentType": 5126,
      "count": 640,
      "max": [
        0.0,
        1.0,
        1.0
      ],
      "min": [
        0.0,
        -1.0,
        -1.0
      ],
      "type": "VEC3"
    },
    {
      "bufferView": 1,
      "byteOffset": 52480,
      "componentType": 5126,
      "count": 640,
      "max": [
        0.9544500112533569,
        0.9513689875602722
      ],
      "min": [
        0.3222239911556244,
        0.0009529999806545675
      ],
      "type": "VEC2"
    },
    {
      "bufferView": 0,
      "byteOffset": 35760,
      "componentType": 5125,
      "count": 960,
      "type": "SCALAR"
    },
    {
      "bufferView": 2,
      "byteOffset": 172800,
      "componentType": 5126,
      "count": 682,
      "max": [
        2.101500988006592,
        0.009999999776482582,
        -0.0
      ],
      "min": [
        -0.009998999536037445,
        -2.1015000343322754,
        -0.20000000298023224
      ],
      "type": "VEC3"
    },
    {
      "bufferView": 2,
      "byteOffset": 180984,
      "componentType": 5126,
      "count": 682,
      "max": [
        1.0,
        1.0,
        1.0
      ],
      "min": [
        -1.0,
        -1.0,
        -1.0
      ],
      "type": "VEC3"
    },
    {
      "bufferView": 1,
      "byteOffset": 57600,
      "componentType": 5126,
      "count": 682,
      "max": [
        0.9068800210952759,
        0.9155430197715759
      ],
      "min": [
        0.0009529999806545675,
        0.28423500061035156
      ],
      "type": "VEC2"
    },
    {
      "bufferView": 0,
      "byteOffset": 39600,
      "componentType": 5125,
      "count": 936,
      "type": "SCALAR"
    },
    {
      "bufferView": 2,
      "byteOffset": 189168,
      "componentType": 5126,
      "count": 320,
      "max": [
        2.101500988006592,
        -0.0,
        0.0
      ],
      "min": [
        0.0,
        -2.1015000343322754,
        -0.20000000298023224
      ],
      "type": "VEC3"
    },
    {
      "bufferView": 2,
      "byteOffset": 193008,
      "componentType": 5126,
      "count": 320,
      "max": [
        1.0,
        1.0,
        1.0
      ],
      "min": [
        -1.0,
        -1.0,
        -1.0
      ],
      "type": "VEC3"
    },
    {
      "bufferView": 1,
      "byteOffset": 63056,
      "componentType": 5126,
      "count": 320,
      "max": [
        0.9990469813346863,
        0.9964510202407837
      ],
      "min": [
        0.2884710133075714,
        0.5351629853248596
      ],
      "type": "VEC2"
    },
    {
      "bufferView": 0,
      "byteOffset": 43344,
      "componentType": 5125,
      "count": 576,
      "type": "SCALAR"
    },
    {
      "bufferView": 2,
      "byteOffset": 196848,
      "componentType": 5126,
      "count": 352,
      "max": [
        1.9900009632110596,
        0.009999999776482582,
        0.0
      ],
      "min": [
        -0.009998999536037445,
        -2.1015000343322754,
        -0.20000000298023224
      ],
      "type": "VEC3"
    },
    {
      "bufferView": 2,
      "byteOffset": 201072,
      "componentType": 5126,
      "count": 352,
      "max": [
        1.0,
        1.0,
        1.0
      ],
      "min": [
        -1.0,
        -1.0,
        -1.0
      ],
      "type": "VEC3"
    },
    {
      "bufferView": 1,
      "byteOffset": 65616,
      "componentType": 5126,
      "count": 352,
      "max": [
        0.9824789762496948,
        0.8607140183448792
      ],
      "min": [
        0.2869360148906708,
        0.3147130012512207
      ],
      "type": "VEC2"
    },
    {
      "bufferView": 0,
      "byteOffset": 45648,
      "componentType": 5125,
      "count": 468,
      "type": "SCALAR"
    },
    {
      "bufferView": 2,
      "byteOffset": 205296,
      "componentType": 5126,
      "count": 128,
      "max": [
        1.9800000190734863,
        -1.9900000095367432,
        0.0
      ],
      "min": [
        0.0,
        -2.1015000343322754,
        -0.20000000298023224
      ],
      "type": "VEC3"
    },
    {
      "bufferView": 2,
      "byteOffset": 206832,
      "componentType": 5126,
      "count": 128,
      "max": [
        0.0,
        1.0,
        1.0
      ],
      "min": [
        0.0,
        -1.0,
        -1.0
      ],
      "type": "VEC3"
    },
    {
      "bufferView": 1,
      "byteOffset": 68432,
      "componentType": 5126,
      "count": 128,
      "max": [
        0.14252300560474396,
        0.9598730206489563
      ],
      "min": [
        0.0009529999806545675,
        0.9174489974975586
      ],
      "type": "VEC2"
    },
    {
      "bufferView": 0,
      "byteOffset": 47520,
      "componentType": 5125,
      "count": 192,
      "type": "SCALAR"
    }
  ],
  "asset": {
    "extras": {
      "author": "Unknown Studios (https://sketchfab.com/theunknownstudios90)",
      "license": "CC-BY-4.0 (http://creativecommons.org/licenses/by/4.0/)",
      "source": "https://sketchfab.com/3d-models/sidewalk-24fec05a386e4241866c4af2e42764b5",
      "title": "SideWalk"
    },
    "generator": "Sketchfab-15.8.0",
    "version": "2.0"
  },
  "bufferViews": [
    {
      "buffer": 0,
      "byteLength": 48288,
      "name": "floatBufferViews",
      "target": 34963
    },
    {
      "buffer": 0,
      "byteLength": 69456,
      "byteOffset": 48288,
      "byteStride": 8,
      "name": "floatBufferViews",
      "target": 34962
    },
    {
      "buffer": 0,
      "byteLength": 208368,
      "byteOffset": 117744,
      "byteStride": 12,
      "name": "floatBufferViews",
      "target": 34962
    }
  ],
  "buffers": [
    {
      "byteLength": 326112,
      "uri": "scene.bin"
    }
  ],
  "extensionsUsed": [
    "KHR_materials_unlit"
  ],
  "images": [
    {
      "uri": "textures/Side_Walk_Mat_1001_baseColor.jpeg"
    },
    {
      "uri": "textures/Side_Walk_Curb_Mat_1001_baseColor.jpeg"
    }
  ],
  "materials": [
    {
      "doubleSided": true,
      "extensions": {
        "KHR_materials_unlit": {}
      },
      "name": "Side_Walk_Mat_1001",
      "pbrMetallicRoughness": {
        "baseColorTexture": {
          "index": 0
        },
        "metallicFactor": 0.0
      }
    },
    {
      "doubleSided": true,
      "extensions": {
        "KHR_materials_unlit": {}
      },
      "name": "Side_Walk_Curb_Mat_1001",
      "pbrMetallicRoughness": {
        "baseColorTexture": {
          "index": 1
        },
        "metallicFactor": 0.0
      }
    }
  ],
  "meshes": [
    {
      "name": "defaultMaterial",
      "primitives": [
        {
          "attributes": {
            "NORMAL": 1,
            "POSITION": 0,
            "TEXCOORD_0": 2
          },
          "indices": 3,
          "material": 0,
          "mode": 4
        }
      ]
    },
    {
      "name": "defaultMaterial",
      "primitives": [
        {
          "attributes": {
            "NORMAL": 5,
            "POSITION": 4,
            "TEXCOORD_0": 6
          },
          "indices": 7,
          "material": 1,
          "mode": 4
        }
      ]
    },
    {
      "name": "defaultMaterial",
      "primitives": [
        {
          "attributes": {
            "NORMAL": 9,
            "POSITION": 8,
            "TEXCOORD_0": 10
          },
          "indices": 11,
          "material": 0,
          "mode": 4
        }
      ]
    },
    {
      "name": "defaultMaterial",
      "primitives": [
        {
          "attributes": {
            "NORMAL": 13,
            "POSITION": 12,
            "TEXCOORD_0": 14
          },
          "indices": 15,
          "material": 1,
          "mode": 4
        }
      ]
    },
    {
      "name": "defaultMaterial",
      "primitives": [
        {
          "attributes": {
            "NORMAL": 17,
            "POSITION": 16,
            "TEXCOORD_0": 18
          },
          "indices": 19,
          "material": 0,
          "mode": 4
        }
      ]
    },
    {
      "name": "defaultMaterial",
      "primitives": [
        {
          "attributes": {
            "NORMAL": 21,
            "POSITION": 20,
            "TEXCOORD_0": 22
          },
          "indices": 23,
          "material": 1,
          "mode": 4
        }
      ]
    },
    {
      "name": "defaultMaterial",
      "primitives": [
        {
          "attributes": {
            "NORMAL": 25,
            "POSITION": 24,
            "TEXCOORD_0": 26
          },
          "indices": 27,
          "material": 0,
          "mode": 4
        }
      ]
    },
    {
      "name": "defaultMaterial",
      "primitives": [
        {
          "attributes": {
            "NORMAL": 29,
            "POSITION": 28,
            "TEXCOORD_0": 30
          },
          "indices": 31,
          "material": 1,
          "mode": 4
        }
      ]
    }
  ],
  "nodes": [
    {
      "children": [
        1
      ],
      "matrix": [
        1.0,
        0.0,
        0.0,
        0.0,
        0.0,
        2.220446049250313e-16,
        -1.0,
        0.0,
        0.0,
        1.0,
        2.220446049250313e-16,
        0.0,
        0.0,
        0.0,
        0.0,
        1.0
      ],
      "name": "Sketchfab_model"
    },
    {
      "children": [
        2,
        5,
        8,
        11
      ],
      "matrix": [
        1.0,
        0.0,
        0.0,
        0.0,
        0.0,
        -4.371139006309477e-08,
        0.999999999999999,
        0.0,
        0.0,
        -0.999999999999999,
        -4.371139006309477e-08,
        0.0,
        0.0,
        0.0,
        0.0,
        1.0
      ],
      "name": "Collada visual scene group"
    },
    {
      "children": [
        3,
        4
      ],
      "matrix": [
        100.0,
        0.0,
        0.0,
        0.0,
        0.0,
        -1.6e-05,
        -100.0,
        0.0,
        0.0,
        100.0,
        -1.6e-05,
        0.0,
        -99.0,
        20.0,
        506.900024,
        1.0
      ],
      "name": "Side_Walk_10_Block"
    },
    {
      "mesh": 0,
      "name": "defaultMaterial"
    },
    {
      "mesh": 1,
      "name": "defaultMaterial"
    },
    {
      "children": [
        6,
        7
      ],
      "matrix": [
        100.0,
        0.0,
        0.0,
        0.0,
        0.0,
        -1.6e-05,
        -100.0,
        0.0,
        0.0,
        100.0,
        -1.6e-05,
        0.0,
        -99.0,
        20.0,
        198.441833,
        1.0
      ],
      "name": "Side_Walk_5_Block"
    },
    {
      "mesh": 2,
      "name": "defaultMaterial"
    },
    {
      "mesh": 3,
      "name": "defaultMaterial"
    },
    {
      "children": [
        9,
        10
      ],
      "matrix": [
        100.0,
        0.0,
        0.0,
        0.0,
        0.0,
        -1.6e-05,
        -100.0,
        0.0,
        0.0,
        100.0,
        -1.6e-05,
        0.0,
        -99.0,
        20.0,
        -410.03833,
        1.0
      ],
      "name": "Side_Walk_Corner_Block"
    },
    {
      "mesh": 4,
      "name": "defaultMaterial"
    },
    {
      "mesh": 5,
      "name": "defaultMaterial"
    },
    {
      "children": [
        12,
        13
      ],
      "matrix": [
        100.0,
        0.0,
        0.0,
        0.0,
        0.0,
        -1.6e-05,
        -100.0,
        0.0,
        0.0,
        100.0,
        -1.6e-05,
        0.0,
        -99.0,
        20.0,
        -99.0,
        1.0
      ],
      "name": "Side_Walk_1_Block"
    },
    {
      "mesh": 6,
      "name": "defaultMaterial"
    },
    {
      "mesh": 7,
      "name": "defaultMaterial"
    }
  ],
  "samplers": [
    {
      "magFilter": 9729,
      "minFilter": 9987,
      "wrapS": 10497,
      "wrapT": 10497
    }
  ],
  "scene": 0,
  "scenes": [
    {
      "name": "Sketchfab_Scene",
      "nodes": [
        0
      ]
    }
  ],
  "textures": [
    {
      "sampler": 0,
      "source": 0
    },
    {
      "sampler": 0,
      "source": 1
    }
  ]
}
